<svg width="400px" height="250px" viewBox="0 0 400 250" version="1.1" xmlns="http://www.w3.org/2000/svg" xmlns:xlink="http://www.w3.org/1999/xlink">

    <path fill="#4C566A"
          d="M8,0
            L392,0
            C392,0,400,0,400,8
            L400,242
            C400,242,400,250,392,250
            L8,250
            C8,250,0,250,0,242
            L0,8
            C0,8,0,0,8,0 Z" />

    <path d="M0,24
            L400,24
            L400,242
            C400,242,400,250,392,250
            L8,250
            C8,250,0,250,0,242
            L0,8 Z" fill="#434C5E" />

    <text id="npx-@daita/cli-new-f" font-family="Lato-Regular, Lato" font-size="18" font-weight="normal" fill="#FFFFFF">
        <tspan x="19" y="57">npx @daita/cli new foo</tspan>
    </text>
    <circle id="Oval" fill="#BF616A" cx="13" cy="12" r="6"></circle>
    <circle id="Oval" fill="#EBCB8B" cx="30" cy="12" r="6"></circle>
    <circle id="Oval" fill="#A3BE8C" cx="49" cy="12" r="6"></circle>
</svg>