<?xml version="1.0" encoding="UTF-8"?>
<svg width="405px" height="434px" viewBox="0 0 405 434" version="1.1" xmlns="http://www.w3.org/2000/svg" xmlns:xlink="http://www.w3.org/1999/xlink">
    <g id="Page-1" stroke="none" stroke-width="1" fill="none" fill-rule="evenodd">
        <g id="Red" fill="#FFFFFF">
            <path d="M403.006075,287 L403.003038,346.312499 C403.003038,394.361272 312.788415,433.312499 201.503038,433.312499 C91.3305143,433.312499 1.80943717,395.136401 0.0300328798,347.751203 L0.00303763684,346.312499 L1.78745907e-14,287 C10.1464431,330.969898 96.4897882,365.312499 201.503038,365.312499 C306.516287,365.312499 392.859632,330.969898 403.006075,287 Z" id="Combined-Shape"></path>
            <path d="M404.006075,201 L404.003038,242.312499 C404.003038,290.361272 313.788415,329.312499 202.503038,329.312499 C92.3305143,329.312499 2.80943717,291.136401 1.03003288,243.751203 L1.00303764,242.312499 L1,201 C11.1464431,244.969898 97.4897882,279.312499 202.503038,279.312499 C307.516287,279.312499 393.859632,244.969898 404.006075,201 Z" id="Combined-Shape"></path>
            <g id="Group" transform="translate(1.000000, 0.000000)">
                <rect id="Rectangle" x="0" y="87" width="403" height="72"></rect>
                <ellipse id="Oval" cx="201.5" cy="159" rx="201.5" ry="87"></ellipse>
                <ellipse id="Oval" cx="201.5" cy="87" rx="201.5" ry="87"></ellipse>
            </g>
        </g>
    </g>
</svg>
